<svg width="339" height="112" viewBox="0 0 339 112" fill="none" xmlns="http://www.w3.org/2000/svg">
<g filter="url(#filter0_d_138_13)">
<path d="M0 20C0 8.95433 8.9543 0 20 0H307C318.046 0 327 8.95431 327 20V79.713C327 90.7587 318.046 99.713 307 99.713H20C8.9543 99.713 0 90.7587 0 79.713V20Z" fill="#FF6B00"/>
</g>
<path d="M101.424 71.9143C98.1382 71.9143 95.1942 71.381 92.5916 70.3143C89.9889 69.2476 87.8982 67.669 86.3196 65.5783C84.7836 63.4876 83.9729 60.9703 83.8876 58.0263H95.5356C95.7062 59.6903 96.2822 60.9703 97.2636 61.8663C98.2449 62.7196 99.5249 63.1463 101.104 63.1463C102.725 63.1463 104.005 62.7836 104.944 62.0583C105.882 61.2903 106.352 60.245 106.352 58.9223C106.352 57.813 105.968 56.8956 105.2 56.1703C104.474 55.445 103.557 54.8476 102.448 54.3783C101.381 53.909 99.8449 53.3756 97.8396 52.7783C94.9382 51.8823 92.5702 50.9863 90.7356 50.0903C88.9009 49.1943 87.3222 47.8716 85.9996 46.1223C84.6769 44.373 84.0156 42.0903 84.0156 39.2743C84.0156 35.093 85.5302 31.829 88.5596 29.4823C91.5889 27.093 95.5356 25.8983 100.4 25.8983C105.349 25.8983 109.338 27.093 112.368 29.4823C115.397 31.829 117.018 35.1143 117.232 39.3383H105.392C105.306 37.8876 104.773 36.757 103.792 35.9463C102.81 35.093 101.552 34.6663 100.016 34.6663C98.6929 34.6663 97.6262 35.029 96.8156 35.7543C96.0049 36.437 95.5996 37.4396 95.5996 38.7623C95.5996 40.213 96.2822 41.3436 97.6476 42.1543C99.0129 42.965 101.146 43.8396 104.048 44.7783C106.949 45.7596 109.296 46.6983 111.088 47.5943C112.922 48.4903 114.501 49.7916 115.824 51.4983C117.146 53.205 117.808 55.4023 117.808 58.0903C117.808 60.6503 117.146 62.9756 115.824 65.0663C114.544 67.157 112.666 68.821 110.192 70.0583C107.717 71.2956 104.794 71.9143 101.424 71.9143ZM144.447 62.1863V71.4663H138.879C134.911 71.4663 131.817 70.5063 129.599 68.5863C127.38 66.6236 126.271 63.445 126.271 59.0503V44.8423H121.919V35.7543H126.271V27.0503H137.215V35.7543H144.383V44.8423H137.215V59.1783C137.215 60.245 137.471 61.013 137.983 61.4823C138.495 61.9516 139.348 62.1863 140.543 62.1863H144.447ZM148.367 53.5463C148.367 49.877 149.049 46.6556 150.415 43.8823C151.823 41.109 153.721 38.9756 156.111 37.4823C158.5 35.989 161.167 35.2423 164.111 35.2423C166.628 35.2423 168.825 35.7543 170.703 36.7783C172.623 37.8023 174.095 39.1463 175.119 40.8103V35.7543H186.063V71.4663H175.119V66.4103C174.052 68.0743 172.559 69.4183 170.639 70.4423C168.761 71.4663 166.564 71.9783 164.047 71.9783C161.145 71.9783 158.5 71.2316 156.111 69.7383C153.721 68.2023 151.823 66.0476 150.415 63.2743C149.049 60.4583 148.367 57.2156 148.367 53.5463ZM175.119 53.6103C175.119 50.8796 174.351 48.725 172.815 47.1463C171.321 45.5676 169.487 44.7783 167.311 44.7783C165.135 44.7783 163.279 45.5676 161.743 47.1463C160.249 48.6823 159.503 50.8156 159.503 53.5463C159.503 56.277 160.249 58.453 161.743 60.0743C163.279 61.653 165.135 62.4423 167.311 62.4423C169.487 62.4423 171.321 61.653 172.815 60.0743C174.351 58.4956 175.119 56.341 175.119 53.6103ZM204.924 41.7063C206.204 39.7436 207.804 38.2076 209.724 37.0983C211.644 35.9463 213.777 35.3703 216.124 35.3703V46.9543H213.116C210.385 46.9543 208.337 47.5516 206.972 48.7463C205.607 49.8983 204.924 51.9463 204.924 54.8903V71.4663H193.98V35.7543H204.924V41.7063ZM241.259 62.1863V71.4663H235.691C231.723 71.4663 228.63 70.5063 226.411 68.5863C224.192 66.6236 223.083 63.445 223.083 59.0503V44.8423H218.731V35.7543H223.083V27.0503H234.027V35.7543H241.195V44.8423H234.027V59.1783C234.027 60.245 234.283 61.013 234.795 61.4823C235.307 61.9516 236.16 62.1863 237.355 62.1863H241.259Z" fill="white"/>
<defs>
<filter id="filter0_d_138_13" x="0" y="0" width="339" height="111.713" filterUnits="userSpaceOnUse" color-interpolation-filters="sRGB">
<feFlood flood-opacity="0" result="BackgroundImageFix"/>
<feColorMatrix in="SourceAlpha" type="matrix" values="0 0 0 0 0 0 0 0 0 0 0 0 0 0 0 0 0 0 127 0" result="hardAlpha"/>
<feOffset dx="8" dy="8"/>
<feGaussianBlur stdDeviation="2"/>
<feComposite in2="hardAlpha" operator="out"/>
<feColorMatrix type="matrix" values="0 0 0 0 0 0 0 0 0 0 0 0 0 0 0 0 0 0 0.25 0"/>
<feBlend mode="normal" in2="BackgroundImageFix" result="effect1_dropShadow_138_13"/>
<feBlend mode="normal" in="SourceGraphic" in2="effect1_dropShadow_138_13" result="shape"/>
</filter>
</defs>
</svg>
