<svg width="235" height="80" viewBox="0 0 235 80" fill="none" xmlns="http://www.w3.org/2000/svg">
<g filter="url(#filter0_d_88_93)">
<path d="M0 20C0 8.9543 8.95431 0 20 0H203C214.046 0 223 8.95431 223 20V48C223 59.0457 214.046 68 203 68H20C8.95431 68 0 59.0457 0 48V20Z" fill="#0166F8"/>
</g>
<path d="M87.7501 16.92V45H80.9101V28.16L74.6301 45H69.1101L62.7901 28.12V45H55.9501V16.92H64.0301L71.9101 36.36L79.7101 16.92H87.7501ZM114.709 22.68V45H107.869V41.96C107.175 42.9467 106.229 43.7467 105.029 44.36C103.855 44.9467 102.549 45.24 101.109 45.24C99.4021 45.24 97.8955 44.8667 96.5888 44.12C95.2821 43.3467 94.2688 42.24 93.5488 40.8C92.8288 39.36 92.4688 37.6667 92.4688 35.72V22.68H99.2688V34.8C99.2688 36.2933 99.6555 37.4533 100.429 38.28C101.202 39.1067 102.242 39.52 103.549 39.52C104.882 39.52 105.935 39.1067 106.709 38.28C107.482 37.4533 107.869 36.2933 107.869 34.8V22.68H114.709ZM126.462 15.4V45H119.622V15.4H126.462ZM130.059 33.8C130.059 31.5067 130.485 29.4933 131.339 27.76C132.219 26.0267 133.405 24.6933 134.899 23.76C136.392 22.8267 138.059 22.36 139.899 22.36C141.472 22.36 142.845 22.68 144.019 23.32C145.219 23.96 146.139 24.8 146.779 25.84V22.68H153.619V45H146.779V41.84C146.112 42.88 145.179 43.72 143.979 44.36C142.805 45 141.432 45.32 139.859 45.32C138.045 45.32 136.392 44.8533 134.899 43.92C133.405 42.96 132.219 41.6133 131.339 39.88C130.485 38.12 130.059 36.0933 130.059 33.8ZM146.779 33.84C146.779 32.1333 146.299 30.7867 145.339 29.8C144.405 28.8133 143.259 28.32 141.899 28.32C140.539 28.32 139.379 28.8133 138.419 29.8C137.485 30.76 137.019 32.0933 137.019 33.8C137.019 35.5067 137.485 36.8667 138.419 37.88C139.379 38.8667 140.539 39.36 141.899 39.36C143.259 39.36 144.405 38.8667 145.339 37.88C146.299 36.8933 146.779 35.5467 146.779 33.84ZM162.007 20.36C160.807 20.36 159.821 20.0133 159.047 19.32C158.301 18.6 157.927 17.72 157.927 16.68C157.927 15.6133 158.301 14.7333 159.047 14.04C159.821 13.32 160.807 12.96 162.007 12.96C163.181 12.96 164.141 13.32 164.887 14.04C165.661 14.7333 166.047 15.6133 166.047 16.68C166.047 17.72 165.661 18.6 164.887 19.32C164.141 20.0133 163.181 20.36 162.007 20.36ZM165.407 22.68V45H158.567V22.68H165.407Z" fill="white"/>
<defs>
<filter id="filter0_d_88_93" x="0" y="0" width="235" height="80" filterUnits="userSpaceOnUse" color-interpolation-filters="sRGB">
<feFlood flood-opacity="0" result="BackgroundImageFix"/>
<feColorMatrix in="SourceAlpha" type="matrix" values="0 0 0 0 0 0 0 0 0 0 0 0 0 0 0 0 0 0 127 0" result="hardAlpha"/>
<feOffset dx="8" dy="8"/>
<feGaussianBlur stdDeviation="2"/>
<feComposite in2="hardAlpha" operator="out"/>
<feColorMatrix type="matrix" values="0 0 0 0 0 0 0 0 0 0 0 0 0 0 0 0 0 0 0.25 0"/>
<feBlend mode="normal" in2="BackgroundImageFix" result="effect1_dropShadow_88_93"/>
<feBlend mode="normal" in="SourceGraphic" in2="effect1_dropShadow_88_93" result="shape"/>
</filter>
</defs>
</svg>
