<svg width="339" height="112" viewBox="0 0 339 112" fill="none" xmlns="http://www.w3.org/2000/svg">
<g filter="url(#filter0_d_138_16)">
<path d="M0 20C0 8.95433 8.9543 0 20 0H307C318.046 0 327 8.95431 327 20V79.713C327 90.7587 318.046 99.713 307 99.713H20C8.9543 99.713 0 90.7587 0 79.713V20Z" fill="#FF0000"/>
</g>
<path d="M107.736 71.9143C104.451 71.9143 101.507 71.381 98.9041 70.3143C96.3014 69.2476 94.2107 67.669 92.6321 65.5783C91.0961 63.4876 90.2854 60.9703 90.2001 58.0263H101.848C102.019 59.6903 102.595 60.9703 103.576 61.8663C104.557 62.7196 105.837 63.1463 107.416 63.1463C109.037 63.1463 110.317 62.7836 111.256 62.0583C112.195 61.2903 112.664 60.245 112.664 58.9223C112.664 57.813 112.28 56.8956 111.512 56.1703C110.787 55.445 109.869 54.8476 108.76 54.3783C107.693 53.909 106.157 53.3756 104.152 52.7783C101.251 51.8823 98.8827 50.9863 97.0481 50.0903C95.2134 49.1943 93.6347 47.8716 92.3121 46.1223C90.9894 44.373 90.3281 42.0903 90.3281 39.2743C90.3281 35.093 91.8427 31.829 94.8721 29.4823C97.9014 27.093 101.848 25.8983 106.712 25.8983C111.661 25.8983 115.651 27.093 118.68 29.4823C121.709 31.829 123.331 35.1143 123.544 39.3383H111.704C111.619 37.8876 111.085 36.757 110.104 35.9463C109.123 35.093 107.864 34.6663 106.328 34.6663C105.005 34.6663 103.939 35.029 103.128 35.7543C102.317 36.437 101.912 37.4396 101.912 38.7623C101.912 40.213 102.595 41.3436 103.96 42.1543C105.325 42.965 107.459 43.8396 110.36 44.7783C113.261 45.7596 115.608 46.6983 117.4 47.5943C119.235 48.4903 120.813 49.7916 122.136 51.4983C123.459 53.205 124.12 55.4023 124.12 58.0903C124.12 60.6503 123.459 62.9756 122.136 65.0663C120.856 67.157 118.979 68.821 116.504 70.0583C114.029 71.2956 111.107 71.9143 107.736 71.9143ZM150.759 62.1863V71.4663H145.191C141.223 71.4663 138.13 70.5063 135.911 68.5863C133.692 66.6236 132.583 63.445 132.583 59.0503V44.8423H128.231V35.7543H132.583V27.0503H143.527V35.7543H150.695V44.8423H143.527V59.1783C143.527 60.245 143.783 61.013 144.295 61.4823C144.807 61.9516 145.66 62.1863 146.855 62.1863H150.759ZM173.111 71.9783C169.612 71.9783 166.455 71.2316 163.639 69.7383C160.866 68.245 158.668 66.1116 157.047 63.3383C155.468 60.565 154.679 57.3223 154.679 53.6103C154.679 49.941 155.49 46.7196 157.111 43.9463C158.732 41.1303 160.951 38.9756 163.767 37.4823C166.583 35.989 169.74 35.2423 173.239 35.2423C176.738 35.2423 179.895 35.989 182.711 37.4823C185.527 38.9756 187.746 41.1303 189.367 43.9463C190.988 46.7196 191.799 49.941 191.799 53.6103C191.799 57.2796 190.967 60.5223 189.303 63.3383C187.682 66.1116 185.442 68.245 182.583 69.7383C179.767 71.2316 176.61 71.9783 173.111 71.9783ZM173.111 62.5063C175.202 62.5063 176.972 61.7383 178.423 60.2023C179.916 58.6663 180.663 56.469 180.663 53.6103C180.663 50.7516 179.938 48.5543 178.487 47.0183C177.079 45.4823 175.33 44.7143 173.239 44.7143C171.106 44.7143 169.335 45.4823 167.927 47.0183C166.519 48.5116 165.815 50.709 165.815 53.6103C165.815 56.469 166.498 58.6663 167.863 60.2023C169.271 61.7383 171.02 62.5063 173.111 62.5063ZM208.549 40.8103C209.616 39.1463 211.088 37.8023 212.965 36.7783C214.842 35.7543 217.04 35.2423 219.557 35.2423C222.501 35.2423 225.168 35.989 227.557 37.4823C229.946 38.9756 231.824 41.109 233.189 43.8823C234.597 46.6556 235.301 49.877 235.301 53.5463C235.301 57.2156 234.597 60.4583 233.189 63.2743C231.824 66.0476 229.946 68.2023 227.557 69.7383C225.168 71.2316 222.501 71.9783 219.557 71.9783C217.082 71.9783 214.885 71.4663 212.965 70.4423C211.088 69.4183 209.616 68.0956 208.549 66.4743V88.4903H197.605V35.7543H208.549V40.8103ZM224.165 53.5463C224.165 50.8156 223.397 48.6823 221.861 47.1463C220.368 45.5676 218.512 44.7783 216.293 44.7783C214.117 44.7783 212.261 45.5676 210.725 47.1463C209.232 48.725 208.485 50.8796 208.485 53.6103C208.485 56.341 209.232 58.4956 210.725 60.0743C212.261 61.653 214.117 62.4423 216.293 62.4423C218.469 62.4423 220.325 61.653 221.861 60.0743C223.397 58.453 224.165 56.277 224.165 53.5463Z" fill="white"/>
<defs>
<filter id="filter0_d_138_16" x="0" y="0" width="339" height="111.713" filterUnits="userSpaceOnUse" color-interpolation-filters="sRGB">
<feFlood flood-opacity="0" result="BackgroundImageFix"/>
<feColorMatrix in="SourceAlpha" type="matrix" values="0 0 0 0 0 0 0 0 0 0 0 0 0 0 0 0 0 0 127 0" result="hardAlpha"/>
<feOffset dx="8" dy="8"/>
<feGaussianBlur stdDeviation="2"/>
<feComposite in2="hardAlpha" operator="out"/>
<feColorMatrix type="matrix" values="0 0 0 0 0 0 0 0 0 0 0 0 0 0 0 0 0 0 0.25 0"/>
<feBlend mode="normal" in2="BackgroundImageFix" result="effect1_dropShadow_138_16"/>
<feBlend mode="normal" in="SourceGraphic" in2="effect1_dropShadow_138_16" result="shape"/>
</filter>
</defs>
</svg>
