<svg width="1440" height="99" viewBox="0 0 1440 99" fill="none" xmlns="http://www.w3.org/2000/svg">
<g filter="url(#filter0_d_76_85)">
<rect x="-2" width="1440" height="99" fill="#012A89"/>
<path d="M495.12 52.8C495.12 50.6027 495.611 48.64 496.592 46.912C497.595 45.1627 498.949 43.808 500.656 42.848C502.384 41.8667 504.315 41.376 506.448 41.376C508.944 41.376 511.131 42.016 513.008 43.296C514.885 44.576 516.197 46.3467 516.944 48.608H511.792C511.28 47.5413 510.555 46.7413 509.616 46.208C508.699 45.6747 507.632 45.408 506.416 45.408C505.115 45.408 503.952 45.7173 502.928 46.336C501.925 46.9333 501.136 47.7867 500.56 48.896C500.005 50.0053 499.728 51.3067 499.728 52.8C499.728 54.272 500.005 55.5733 500.56 56.704C501.136 57.8133 501.925 58.6773 502.928 59.296C503.952 59.8933 505.115 60.192 506.416 60.192C507.632 60.192 508.699 59.9253 509.616 59.392C510.555 58.8373 511.28 58.0267 511.792 56.96H516.944C516.197 59.2427 514.885 61.024 513.008 62.304C511.152 63.5627 508.965 64.192 506.448 64.192C504.315 64.192 502.384 63.712 500.656 62.752C498.949 61.7707 497.595 60.416 496.592 58.688C495.611 56.96 495.12 54.9973 495.12 52.8ZM528.643 64.288C526.936 64.288 525.4 63.9147 524.035 63.168C522.669 62.4 521.592 61.3227 520.803 59.936C520.035 58.5493 519.651 56.9493 519.651 55.136C519.651 53.3227 520.045 51.7227 520.835 50.336C521.645 48.9493 522.744 47.8827 524.131 47.136C525.517 46.368 527.064 45.984 528.771 45.984C530.477 45.984 532.024 46.368 533.411 47.136C534.797 47.8827 535.885 48.9493 536.675 50.336C537.485 51.7227 537.891 53.3227 537.891 55.136C537.891 56.9493 537.475 58.5493 536.642 59.936C535.832 61.3227 534.723 62.4 533.315 63.168C531.928 63.9147 530.371 64.288 528.643 64.288ZM528.643 60.384C529.453 60.384 530.211 60.192 530.915 59.808C531.64 59.4027 532.216 58.8053 532.643 58.016C533.069 57.2267 533.283 56.2667 533.283 55.136C533.283 53.4507 532.835 52.16 531.939 51.264C531.064 50.3467 529.987 49.888 528.707 49.888C527.427 49.888 526.349 50.3467 525.475 51.264C524.621 52.16 524.195 53.4507 524.195 55.136C524.195 56.8213 524.611 58.1227 525.443 59.04C526.296 59.936 527.363 60.384 528.643 60.384ZM545.657 48.832C546.233 48.0213 547.022 47.3493 548.025 46.816C549.049 46.2613 550.211 45.984 551.513 45.984C553.027 45.984 554.393 46.3573 555.609 47.104C556.846 47.8507 557.817 48.9173 558.521 50.304C559.246 51.6693 559.609 53.2587 559.609 55.072C559.609 56.8853 559.246 58.496 558.521 59.904C557.817 61.2907 556.846 62.368 555.609 63.136C554.393 63.904 553.027 64.288 551.513 64.288C550.211 64.288 549.059 64.0213 548.057 63.488C547.075 62.9547 546.275 62.2827 545.657 61.472V72.448H541.177V46.272H545.657V48.832ZM555.033 55.072C555.033 54.0053 554.809 53.088 554.361 52.32C553.934 51.5307 553.358 50.9333 552.633 50.528C551.929 50.1227 551.161 49.92 550.329 49.92C549.518 49.92 548.75 50.1333 548.025 50.56C547.321 50.9653 546.745 51.5627 546.297 52.352C545.87 53.1413 545.657 54.0693 545.657 55.136C545.657 56.2027 545.87 57.1307 546.297 57.92C546.745 58.7093 547.321 59.3173 548.025 59.744C548.75 60.1493 549.518 60.352 550.329 60.352C551.161 60.352 551.929 60.1387 552.633 59.712C553.358 59.2853 553.934 58.6773 554.361 57.888C554.809 57.0987 555.033 56.16 555.033 55.072ZM579.824 46.272L568.848 72.384H564.08L567.92 63.552L560.816 46.272H565.84L570.416 58.656L575.056 46.272H579.824ZM586.719 49.024C587.295 48.0853 588.042 47.3493 588.959 46.816C589.898 46.2827 590.965 46.016 592.159 46.016V50.72H590.975C589.567 50.72 588.501 51.0507 587.775 51.712C587.071 52.3733 586.719 53.5253 586.719 55.168V64H582.239V46.272H586.719V49.024ZM597.449 44.16C596.659 44.16 595.998 43.9147 595.465 43.424C594.953 42.912 594.697 42.2827 594.697 41.536C594.697 40.7893 594.953 40.1707 595.465 39.68C595.998 39.168 596.659 38.912 597.449 38.912C598.238 38.912 598.889 39.168 599.401 39.68C599.934 40.1707 600.201 40.7893 600.201 41.536C600.201 42.2827 599.934 42.912 599.401 43.424C598.889 43.9147 598.238 44.16 597.449 44.16ZM599.657 46.272V64H595.177V46.272H599.657ZM611.027 45.984C612.35 45.984 613.512 46.2507 614.515 46.784C615.518 47.296 616.307 47.968 616.883 48.8V46.272H621.395V64.128C621.395 65.7707 621.064 67.232 620.403 68.512C619.742 69.8133 618.75 70.8373 617.427 71.584C616.104 72.352 614.504 72.736 612.627 72.736C610.11 72.736 608.04 72.1493 606.419 70.976C604.819 69.8027 603.912 68.2027 603.699 66.176H608.147C608.382 66.9867 608.883 67.6267 609.651 68.096C610.44 68.5867 611.39 68.832 612.499 68.832C613.8 68.832 614.856 68.4373 615.667 67.648C616.478 66.88 616.883 65.7067 616.883 64.128V61.376C616.307 62.208 615.507 62.9013 614.483 63.456C613.48 64.0107 612.328 64.288 611.027 64.288C609.534 64.288 608.168 63.904 606.931 63.136C605.694 62.368 604.712 61.2907 603.987 59.904C603.283 58.496 602.931 56.8853 602.931 55.072C602.931 53.28 603.283 51.6907 603.987 50.304C604.712 48.9173 605.683 47.8507 606.899 47.104C608.136 46.3573 609.512 45.984 611.027 45.984ZM616.883 55.136C616.883 54.048 616.67 53.12 616.243 52.352C615.816 51.5627 615.24 50.9653 614.515 50.56C613.79 50.1333 613.011 49.92 612.179 49.92C611.347 49.92 610.579 50.1227 609.875 50.528C609.171 50.9333 608.595 51.5307 608.147 52.32C607.72 53.088 607.507 54.0053 607.507 55.072C607.507 56.1387 607.72 57.0773 608.147 57.888C608.595 58.6773 609.171 59.2853 609.875 59.712C610.6 60.1387 611.368 60.352 612.179 60.352C613.011 60.352 613.79 60.1493 614.515 59.744C615.24 59.3173 615.816 58.72 616.243 57.952C616.67 57.1627 616.883 56.224 616.883 55.136ZM635.755 46.016C637.099 46.016 638.293 46.3147 639.339 46.912C640.384 47.488 641.195 48.352 641.771 49.504C642.368 50.6347 642.667 52 642.667 53.6V64H638.187V54.208C638.187 52.8 637.835 51.7227 637.131 50.976C636.427 50.208 635.467 49.824 634.251 49.824C633.013 49.824 632.032 50.208 631.307 50.976C630.603 51.7227 630.251 52.8 630.251 54.208V64H625.771V40.32H630.251V48.48C630.827 47.712 631.595 47.1147 632.555 46.688C633.515 46.24 634.581 46.016 635.755 46.016ZM652.143 49.952V58.528C652.143 59.1253 652.281 59.5627 652.559 59.84C652.857 60.096 653.348 60.224 654.031 60.224H656.111V64H653.295C649.519 64 647.631 62.1653 647.631 58.496V49.952H645.519V46.272H647.631V41.888H652.143V46.272H656.111V49.952H652.143ZM665.87 52.8C665.87 50.6027 666.361 48.64 667.342 46.912C668.345 45.1627 669.699 43.808 671.406 42.848C673.134 41.8667 675.065 41.376 677.198 41.376C679.694 41.376 681.881 42.016 683.758 43.296C685.635 44.576 686.947 46.3467 687.694 48.608H682.542C682.03 47.5413 681.305 46.7413 680.366 46.208C679.449 45.6747 678.382 45.408 677.166 45.408C675.865 45.408 674.702 45.7173 673.678 46.336C672.675 46.9333 671.886 47.7867 671.31 48.896C670.755 50.0053 670.478 51.3067 670.478 52.8C670.478 54.272 670.755 55.5733 671.31 56.704C671.886 57.8133 672.675 58.6773 673.678 59.296C674.702 59.8933 675.865 60.192 677.166 60.192C678.382 60.192 679.449 59.9253 680.366 59.392C681.305 58.8373 682.03 58.0267 682.542 56.96H687.694C686.947 59.2427 685.635 61.024 683.758 62.304C681.902 63.5627 679.715 64.192 677.198 64.192C675.065 64.192 673.134 63.712 671.406 62.752C669.699 61.7707 668.345 60.416 667.342 58.688C666.361 56.96 665.87 54.9973 665.87 52.8ZM691.009 52.032C691.009 48.3413 691.67 45.4507 692.993 43.36C694.337 41.2693 696.555 40.224 699.649 40.224C702.742 40.224 704.95 41.2693 706.273 43.36C707.617 45.4507 708.289 48.3413 708.289 52.032C708.289 55.744 707.617 58.656 706.273 60.768C704.95 62.88 702.742 63.936 699.649 63.936C696.555 63.936 694.337 62.88 692.993 60.768C691.67 58.656 691.009 55.744 691.009 52.032ZM703.873 52.032C703.873 50.4533 703.766 49.1307 703.553 48.064C703.361 46.976 702.955 46.0907 702.337 45.408C701.739 44.7253 700.843 44.384 699.649 44.384C698.454 44.384 697.547 44.7253 696.929 45.408C696.331 46.0907 695.926 46.976 695.713 48.064C695.521 49.1307 695.425 50.4533 695.425 52.032C695.425 53.6533 695.521 55.0187 695.713 56.128C695.905 57.216 696.31 58.1013 696.929 58.784C697.547 59.4453 698.454 59.776 699.649 59.776C700.843 59.776 701.75 59.4453 702.369 58.784C702.987 58.1013 703.393 57.216 703.585 56.128C703.777 55.0187 703.873 53.6533 703.873 52.032ZM713.104 58.944C715.152 57.2373 716.784 55.8187 718 54.688C719.216 53.536 720.229 52.3413 721.04 51.104C721.851 49.8667 722.256 48.6507 722.256 47.456C722.256 46.368 722 45.5147 721.488 44.896C720.976 44.2773 720.187 43.968 719.12 43.968C718.053 43.968 717.232 44.3307 716.656 45.056C716.08 45.76 715.781 46.7307 715.76 47.968H711.408C711.493 45.408 712.251 43.4667 713.68 42.144C715.131 40.8213 716.965 40.16 719.184 40.16C721.616 40.16 723.483 40.8107 724.784 42.112C726.085 43.392 726.736 45.088 726.736 47.2C726.736 48.864 726.288 50.4533 725.392 51.968C724.496 53.4827 723.472 54.8053 722.32 55.936C721.168 57.0453 719.664 58.3893 717.808 59.968H727.248V63.68H711.44V60.352L713.104 58.944ZM731.479 58.944C733.527 57.2373 735.159 55.8187 736.375 54.688C737.591 53.536 738.604 52.3413 739.415 51.104C740.226 49.8667 740.631 48.6507 740.631 47.456C740.631 46.368 740.375 45.5147 739.863 44.896C739.351 44.2773 738.562 43.968 737.495 43.968C736.428 43.968 735.607 44.3307 735.031 45.056C734.455 45.76 734.156 46.7307 734.135 47.968H729.783C729.868 45.408 730.626 43.4667 732.055 42.144C733.506 40.8213 735.34 40.16 737.559 40.16C739.991 40.16 741.858 40.8107 743.159 42.112C744.46 43.392 745.111 45.088 745.111 47.2C745.111 48.864 744.663 50.4533 743.767 51.968C742.871 53.4827 741.847 54.8053 740.695 55.936C739.543 57.0453 738.039 58.3893 736.183 59.968H745.623V63.68H729.815V60.352L731.479 58.944ZM762.59 50.688V54.464H749.022V50.688H762.59ZM767.102 52.032C767.102 48.3413 767.764 45.4507 769.086 43.36C770.43 41.2693 772.649 40.224 775.742 40.224C778.836 40.224 781.044 41.2693 782.366 43.36C783.71 45.4507 784.382 48.3413 784.382 52.032C784.382 55.744 783.71 58.656 782.366 60.768C781.044 62.88 778.836 63.936 775.742 63.936C772.649 63.936 770.43 62.88 769.086 60.768C767.764 58.656 767.102 55.744 767.102 52.032ZM779.966 52.032C779.966 50.4533 779.86 49.1307 779.646 48.064C779.454 46.976 779.049 46.0907 778.43 45.408C777.833 44.7253 776.937 44.384 775.742 44.384C774.548 44.384 773.641 44.7253 773.022 45.408C772.425 46.0907 772.02 46.976 771.806 48.064C771.614 49.1307 771.518 50.4533 771.518 52.032C771.518 53.6533 771.614 55.0187 771.806 56.128C771.998 57.216 772.404 58.1013 773.022 58.784C773.641 59.4453 774.548 59.776 775.742 59.776C776.937 59.776 777.844 59.4453 778.462 58.784C779.081 58.1013 779.486 57.216 779.678 56.128C779.87 55.0187 779.966 53.6533 779.966 52.032ZM791.694 51.648C789.56 50.5387 788.494 48.8213 788.494 46.496C788.494 45.344 788.782 44.2987 789.358 43.36C789.955 42.4 790.84 41.6427 792.014 41.088C793.208 40.512 794.659 40.224 796.366 40.224C798.072 40.224 799.512 40.512 800.686 41.088C801.88 41.6427 802.766 42.4 803.342 43.36C803.939 44.2987 804.238 45.344 804.238 46.496C804.238 47.6693 803.95 48.704 803.374 49.6C802.798 50.4747 802.03 51.1573 801.07 51.648C802.243 52.16 803.16 52.9067 803.822 53.888C804.483 54.8693 804.814 56.032 804.814 57.376C804.814 58.8267 804.44 60.096 803.694 61.184C802.968 62.2507 801.966 63.072 800.686 63.648C799.406 64.224 797.966 64.512 796.366 64.512C794.766 64.512 793.326 64.224 792.046 63.648C790.787 63.072 789.784 62.2507 789.038 61.184C788.312 60.096 787.95 58.8267 787.95 57.376C787.95 56.032 788.28 54.8693 788.942 53.888C789.603 52.8853 790.52 52.1387 791.694 51.648ZM799.886 47.136C799.886 46.0907 799.566 45.28 798.926 44.704C798.307 44.128 797.454 43.84 796.366 43.84C795.299 43.84 794.446 44.128 793.806 44.704C793.187 45.28 792.878 46.1013 792.878 47.168C792.878 48.128 793.198 48.896 793.838 49.472C794.499 50.048 795.342 50.336 796.366 50.336C797.39 50.336 798.232 50.048 798.894 49.472C799.555 48.8747 799.886 48.096 799.886 47.136ZM796.366 53.6C795.15 53.6 794.158 53.9093 793.39 54.528C792.643 55.1467 792.27 56.032 792.27 57.184C792.27 58.2507 792.632 59.1253 793.358 59.808C794.104 60.4693 795.107 60.8 796.366 60.8C797.624 60.8 798.616 60.4587 799.342 59.776C800.067 59.0933 800.43 58.2293 800.43 57.184C800.43 56.0533 800.056 55.1787 799.31 54.56C798.563 53.92 797.582 53.6 796.366 53.6ZM812.256 51.648C810.123 50.5387 809.056 48.8213 809.056 46.496C809.056 45.344 809.344 44.2987 809.92 43.36C810.518 42.4 811.403 41.6427 812.576 41.088C813.771 40.512 815.222 40.224 816.928 40.224C818.635 40.224 820.075 40.512 821.248 41.088C822.443 41.6427 823.328 42.4 823.904 43.36C824.502 44.2987 824.8 45.344 824.8 46.496C824.8 47.6693 824.512 48.704 823.936 49.6C823.36 50.4747 822.592 51.1573 821.632 51.648C822.806 52.16 823.723 52.9067 824.384 53.888C825.046 54.8693 825.376 56.032 825.376 57.376C825.376 58.8267 825.003 60.096 824.256 61.184C823.531 62.2507 822.528 63.072 821.248 63.648C819.968 64.224 818.528 64.512 816.928 64.512C815.328 64.512 813.888 64.224 812.608 63.648C811.35 63.072 810.347 62.2507 809.6 61.184C808.875 60.096 808.512 58.8267 808.512 57.376C808.512 56.032 808.843 54.8693 809.504 53.888C810.166 52.8853 811.083 52.1387 812.256 51.648ZM820.448 47.136C820.448 46.0907 820.128 45.28 819.488 44.704C818.87 44.128 818.016 43.84 816.928 43.84C815.862 43.84 815.008 44.128 814.368 44.704C813.75 45.28 813.44 46.1013 813.44 47.168C813.44 48.128 813.76 48.896 814.4 49.472C815.062 50.048 815.904 50.336 816.928 50.336C817.952 50.336 818.795 50.048 819.456 49.472C820.118 48.8747 820.448 48.096 820.448 47.136ZM816.928 53.6C815.712 53.6 814.72 53.9093 813.952 54.528C813.206 55.1467 812.832 56.032 812.832 57.184C812.832 58.2507 813.195 59.1253 813.92 59.808C814.667 60.4693 815.67 60.8 816.928 60.8C818.187 60.8 819.179 60.4587 819.904 59.776C820.63 59.0933 820.992 58.2293 820.992 57.184C820.992 56.0533 820.619 55.1787 819.872 54.56C819.126 53.92 818.144 53.6 816.928 53.6ZM834.323 59.296L830.579 68.288H827.699L829.779 59.296H834.323ZM863.705 41.664V64H859.225V54.496H849.657V64H845.177V41.664H849.657V50.848H859.225V41.664H863.705ZM884.594 54.752C884.594 55.392 884.552 55.968 884.466 56.48H871.506C871.613 57.76 872.061 58.7627 872.85 59.488C873.64 60.2133 874.61 60.576 875.762 60.576C877.426 60.576 878.61 59.8613 879.314 58.432H884.146C883.634 60.1387 882.653 61.5467 881.202 62.656C879.752 63.744 877.97 64.288 875.858 64.288C874.152 64.288 872.616 63.9147 871.25 63.168C869.906 62.4 868.85 61.3227 868.082 59.936C867.336 58.5493 866.962 56.9493 866.962 55.136C866.962 53.3013 867.336 51.6907 868.082 50.304C868.829 48.9173 869.874 47.8507 871.218 47.104C872.562 46.3573 874.109 45.984 875.858 45.984C877.544 45.984 879.048 46.3467 880.37 47.072C881.714 47.7973 882.749 48.832 883.474 50.176C884.221 51.4987 884.594 53.024 884.594 54.752ZM879.954 53.472C879.933 52.32 879.517 51.4027 878.706 50.72C877.896 50.016 876.904 49.664 875.73 49.664C874.621 49.664 873.682 50.0053 872.914 50.688C872.168 51.3493 871.709 52.2773 871.538 53.472H879.954ZM912.44 46.272L907.256 64H902.424L899.192 51.616L895.96 64H891.096L885.88 46.272H890.424L893.56 59.776L896.952 46.272H901.688L905.016 59.744L908.152 46.272H912.44ZM913.712 55.072C913.712 53.28 914.064 51.6907 914.768 50.304C915.494 48.9173 916.464 47.8507 917.68 47.104C918.918 46.3573 920.294 45.984 921.808 45.984C923.131 45.984 924.283 46.2507 925.264 46.784C926.267 47.3173 927.067 47.9893 927.664 48.8V46.272H932.176V64H927.664V61.408C927.088 62.24 926.288 62.9333 925.264 63.488C924.262 64.0213 923.099 64.288 921.776 64.288C920.283 64.288 918.918 63.904 917.68 63.136C916.464 62.368 915.494 61.2907 914.768 59.904C914.064 58.496 913.712 56.8853 913.712 55.072ZM927.664 55.136C927.664 54.048 927.451 53.12 927.024 52.352C926.598 51.5627 926.022 50.9653 925.296 50.56C924.571 50.1333 923.792 49.92 922.96 49.92C922.128 49.92 921.36 50.1227 920.656 50.528C919.952 50.9333 919.376 51.5307 918.928 52.32C918.502 53.088 918.288 54.0053 918.288 55.072C918.288 56.1387 918.502 57.0773 918.928 57.888C919.376 58.6773 919.952 59.2853 920.656 59.712C921.382 60.1387 922.15 60.352 922.96 60.352C923.792 60.352 924.571 60.1493 925.296 59.744C926.022 59.3173 926.598 58.72 927.024 57.952C927.451 57.1627 927.664 56.224 927.664 55.136ZM946.376 46.016C948.488 46.016 950.194 46.688 951.496 48.032C952.797 49.3547 953.448 51.2107 953.448 53.6V64H948.968V54.208C948.968 52.8 948.616 51.7227 947.912 50.976C947.208 50.208 946.248 49.824 945.032 49.824C943.794 49.824 942.813 50.208 942.088 50.976C941.384 51.7227 941.032 52.8 941.032 54.208V64H936.552V46.272H941.032V48.48C941.629 47.712 942.386 47.1147 943.304 46.688C944.242 46.24 945.266 46.016 946.376 46.016ZM959.98 44.16C959.191 44.16 958.529 43.9147 957.996 43.424C957.484 42.912 957.228 42.2827 957.228 41.536C957.228 40.7893 957.484 40.1707 957.996 39.68C958.529 39.168 959.191 38.912 959.98 38.912C960.769 38.912 961.42 39.168 961.932 39.68C962.465 40.1707 962.732 40.7893 962.732 41.536C962.732 42.2827 962.465 42.912 961.932 43.424C961.42 43.9147 960.769 44.16 959.98 44.16ZM962.188 46.272V64H957.708V46.272H962.188ZM968.598 64.224C967.788 64.224 967.116 63.9787 966.582 63.488C966.07 62.976 965.814 62.3467 965.814 61.6C965.814 60.8533 966.07 60.2347 966.582 59.744C967.116 59.232 967.788 58.976 968.598 58.976C969.388 58.976 970.038 59.232 970.55 59.744C971.062 60.2347 971.318 60.8533 971.318 61.6C971.318 62.3467 971.062 62.976 970.55 63.488C970.038 63.9787 969.388 64.224 968.598 64.224ZM977.199 44.16C976.409 44.16 975.748 43.9147 975.215 43.424C974.703 42.912 974.447 42.2827 974.447 41.536C974.447 40.7893 974.703 40.1707 975.215 39.68C975.748 39.168 976.409 38.912 977.199 38.912C977.988 38.912 978.639 39.168 979.151 39.68C979.684 40.1707 979.951 40.7893 979.951 41.536C979.951 42.2827 979.684 42.912 979.151 43.424C978.639 43.9147 977.988 44.16 977.199 44.16ZM979.407 46.272V64H974.927V46.272H979.407ZM982.681 55.072C982.681 53.28 983.033 51.6907 983.737 50.304C984.462 48.9173 985.444 47.8507 986.681 47.104C987.918 46.3573 989.294 45.984 990.809 45.984C991.961 45.984 993.06 46.24 994.105 46.752C995.15 47.2427 995.982 47.904 996.601 48.736V40.32H1001.15V64H996.601V61.376C996.046 62.2507 995.268 62.9547 994.265 63.488C993.262 64.0213 992.1 64.288 990.777 64.288C989.284 64.288 987.918 63.904 986.681 63.136C985.444 62.368 984.462 61.2907 983.737 59.904C983.033 58.496 982.681 56.8853 982.681 55.072ZM996.633 55.136C996.633 54.048 996.42 53.12 995.993 52.352C995.566 51.5627 994.99 50.9653 994.265 50.56C993.54 50.1333 992.761 49.92 991.929 49.92C991.097 49.92 990.329 50.1227 989.625 50.528C988.921 50.9333 988.345 51.5307 987.897 52.32C987.47 53.088 987.257 54.0053 987.257 55.072C987.257 56.1387 987.47 57.0773 987.897 57.888C988.345 58.6773 988.921 59.2853 989.625 59.712C990.35 60.1387 991.118 60.352 991.929 60.352C992.761 60.352 993.54 60.1493 994.265 59.744C994.99 59.3173 995.566 58.72 995.993 57.952C996.42 57.1627 996.633 56.224 996.633 55.136Z" fill="white"/>
<path d="M456.36 50.245C456.481 49.4475 456.747 48.7467 457.085 48.1667C457.81 46.8134 459.043 46.1125 460.71 46.0884C461.798 46.0884 462.788 46.5717 463.489 47.2725C464.166 48.0217 464.625 49.0609 464.625 50.1H468.975C468.927 48.9642 468.709 47.925 468.25 46.9584C467.888 46.04 467.332 45.2184 466.607 44.5417C463.103 41.3034 456.602 41.7625 453.629 45.4359C450.512 49.4717 450.439 56.5284 453.605 60.5642C456.529 64.165 462.933 64.6725 466.413 61.4584C467.163 60.8542 467.767 60.105 468.25 59.235C468.637 58.365 468.903 57.4467 468.927 56.4559H464.625C464.625 56.9634 464.456 57.4225 464.238 57.8334C464.021 58.2925 463.731 58.655 463.417 58.9692C462.619 59.5975 461.677 59.9359 460.662 59.9359C459.792 59.9117 459.067 59.7425 458.511 59.38C457.907 59.0417 457.375 58.4859 457.085 57.8334C455.877 55.6584 456.07 52.6375 456.36 50.245ZM461 28.8334C447.708 28.8334 436.833 39.7084 436.833 53C438.114 85.0692 483.958 85.045 485.167 53C485.167 39.7084 474.292 28.8334 461 28.8334ZM461 72.3334C450.343 72.3334 441.667 63.6575 441.667 53C442.73 27.3592 479.27 27.3592 480.333 53C480.333 63.6575 471.658 72.3334 461 72.3334Z" fill="white"/>
</g>
<defs>
<filter id="filter0_d_76_85" x="-6" y="0" width="1448" height="107" filterUnits="userSpaceOnUse" color-interpolation-filters="sRGB">
<feFlood flood-opacity="0" result="BackgroundImageFix"/>
<feColorMatrix in="SourceAlpha" type="matrix" values="0 0 0 0 0 0 0 0 0 0 0 0 0 0 0 0 0 0 127 0" result="hardAlpha"/>
<feOffset dy="4"/>
<feGaussianBlur stdDeviation="2"/>
<feComposite in2="hardAlpha" operator="out"/>
<feColorMatrix type="matrix" values="0 0 0 0 0 0 0 0 0 0 0 0 0 0 0 0 0 0 0.25 0"/>
<feBlend mode="normal" in2="BackgroundImageFix" result="effect1_dropShadow_76_85"/>
<feBlend mode="normal" in="SourceGraphic" in2="effect1_dropShadow_76_85" result="shape"/>
</filter>
</defs>
</svg>
